<?xml version="1.0" encoding="UTF-8"?>
<svg id="Layer_1" data-name="Layer 1" xmlns="http://www.w3.org/2000/svg" version="1.1" viewBox="0 0 938.9 720.9">
  <defs>
    <style>
      .cls-1 {
        fill: #000;
        stroke-width: 0px;
      }
    </style>
  </defs>
  <path class="cls-1" d="M752.4,17.1c0-11.4,6-17.1,18-17.1h149.6c12.6,0,18.9,5.7,18.9,17.1v450.5c0,86.5-17.6,150.3-52.7,191.5-35.1,41.1-93.3,61.7-174.4,61.7s-77.4-5-105.9-14.9c-28.5-9.9-51.8-24.3-69.8-43.3-18-18.9-31.1-42-39.2-69.4-8.1-27.3-13.1-58.1-14.9-92.4-1.2-12,4.8-18,18-18h152.3c12.6,0,18.9,6,18.9,18,0,24.6,3.4,40.9,10.4,48.7,6.9,7.8,17,11.7,30.2,11.7s13.5-1,18.9-3.2c5.4-2.1,9.6-6.4,12.6-13.1,3-6.6,5.3-15.6,6.8-27,1.5-11.4,2.3-26.7,2.3-46V17.1Z"/>
  <path class="cls-1" d="M270.5,17.1c0-11.4,6-17.1,18-17.1h149.6c12.6,0,18.9,5.7,18.9,17.1v450.5c0,86.5-17.6,150.3-52.7,191.5-35.1,41.1-93.3,61.7-174.4,61.7s-77.4-5-105.9-14.9c-28.5-9.9-51.8-24.3-69.8-43.3-18-18.9-31.1-42-39.2-69.4-8.1-27.3-13.1-58.1-14.9-92.4-1.2-12,4.8-18,18-18h152.3c12.6,0,18.9,6,18.9,18,0,24.6,3.4,40.9,10.4,48.7,6.9,7.8,17,11.7,30.2,11.7s13.5-1,18.9-3.2c5.4-2.1,9.6-6.4,12.6-13.1,3-6.6,5.3-15.6,6.8-27,1.5-11.4,2.3-26.7,2.3-46V17.1Z"/>
  <path class="cls-1" d="M594.5,381.9c7.5,0,9.9-3.6,9.9-11.1v-38.1c0-6.9,2.9-9.9,9.4-9.9h50.5c6.5,0,9.4,2.8,9.4,9.9v29.8c0,6.9-2.9,10-9.4,10h-6v12.4c0,29.6-16.4,48.6-46.6,48.6h-80.5c-32,0-49.2-19.1-49.2-48.6v-22.1c0-26,14.1-40.9,32.8-42.8-11.5-5.2-15.4-15.8-15.4-29.8v-13.3c0-24.3,14.6-42.3,50-42.3h38.6c6.5,0,9.4,3,9.4,10v31.8c0,6.9-2.9,9.9-9.4,9.9h-21.7c-8.3,0-9.9,3.9-9.9,8.3v5.8c0,4.4,1.6,8.3,9.9,8.3h3.9c6.5,0,9.4,3,9.4,9.9v28.5c0,6.9-2.9,9.9-9.4,9.9h-20.8c-8.3,0-9.9,3.6-9.9,8v8.6c0,4.4,1.6,8.3,9.9,8.3h45.1Z"/>
</svg>